# xmcd
#
# Track frame offsets:
#	182
#	24465
#	45885
#	70097
#	89180
#
# Disc length: 1431 seconds
#
# Revision: 4
# Processed by: cddbd v1.5.2PL0 Copyright (c) Steve Scherf et al.
# Submitted via: EZCDAudioConverter 7.1.2.1
#
DISCID=38059505
DTITLE=R. Kelly - I Believe I Can Fly
DYEAR=1996
DGENRE=R&B
TTITLE0=I Believe I Can Fly (LP Version)
TTITLE1=I Believe I Can Fly (Radio Edit)
TTITLE2=I Believe I Can Fly (Instrumental)
TTITLE3=Religious Love
TTITLE4=I Can't Sleep Baby (If I) Remix (Radio - Video Version)
EXTD=
EXTT0=
EXTT1=
EXTT2=
EXTT3=
EXTT4=
PLAYORDER=
